# File created by Blade
# Date/Time:  Thu Jan 22 16:00:44 2015
# Frame Rate: 120.000 fps
#------------------------------------------------------
:FULLY-SPECIFIED
:DEGREES
1287
root 1.746234 37.129709 7.511454 2.161768 -3.806858 1.307313
RightUpLeg 8.446797 3.309260 -2.522387
RightLeg -6.145217 -0.000000 0.000000
RightFoot -11.021461 -10.845973 17.851618
RightToeBase 13.588878 -0.000000 -0.000000
LeftUpLeg 6.808503 7.404762 5.196642
LeftLeg -4.335858 -0.000000 0.000000
LeftFoot -5.091197 5.471475 -20.350732
LeftToeBase 7.480031 -0.000000 -0.000000
Spine -6.396905 -16.883289 -5.356872
RightShoulder -17.744554 16.259163 -41.943646
RightArm 143.870787 45.757421 94.664907
RightForeArm 45.926166 -0.000000 150.060663
RightHand 24.086613 -0.000000 -10.317792
RightHandThumb1 -24.326973 -0.000000 -32.862282
LeftShoulder -8.690675 51.193434 3.619951
LeftArm 126.900822 32.674225 37.602435
LeftForeArm 57.257832 -0.000000 130.693672
LeftHand -70.375985 -0.000000 80.319326
LeftHandThumb1 -26.253704 0.000000 33.147579
Head 39.082610 27.491924 27.889920
1288
root 1.749689 37.129047 7.512374 2.158608 -3.905811 1.315909
RightUpLeg 8.437165 3.304180 -2.549272
RightLeg -6.154619 -0.000000 0.000000
RightFoot -10.983495 -10.774800 17.831227
RightToeBase 13.569722 -0.000000 -0.000000
LeftUpLeg 6.817461 7.450812 5.178480
LeftLeg -4.308533 -0.000000 0.000000
LeftFoot -5.127163 5.497076 -20.363372
LeftToeBase 7.501231 -0.000000 -0.000000
Spine -6.291830 -16.682700 -5.329112
RightShoulder -17.846194 16.283601 -41.964009
RightArm 144.172941 45.631811 94.787492
RightForeArm 45.946707 -0.000000 150.031665
RightHand 24.079159 -0.000000 -10.446006
RightHandThumb1 -24.326973 -0.000000 -32.862282
LeftShoulder -8.705414 51.182484 3.579175
LeftArm 126.899488 32.665429 37.631465
LeftForeArm 57.218228 -0.000000 130.800280
LeftHand -70.035413 0.000000 79.530401
LeftHandThumb1 -26.253704 0.000000 33.147579
Head 38.603012 27.496527 27.564990
1289
root 1.754024 37.128819 7.513321 2.160993 -3.996797 1.322491
RightUpLeg 8.426599 3.274891 -2.574987
RightLeg -6.168252 -0.000000 0.000000
RightFoot -10.939851 -10.694208 17.781074
RightToeBase 13.579228 -0.000000 -0.000000
LeftUpLeg 6.816133 7.508909 5.160984
LeftLeg -4.275411 -0.000000 0.000000
LeftFoot -5.148942 5.520664 -20.329723
LeftToeBase 7.445745 -0.000000 -0.000000
Spine -6.208645 -16.488323 -5.293795
RightShoulder -17.956694 16.305177 -42.004105
RightArm 144.486548 45.466306 95.011637
RightForeArm 46.050934 -0.000000 150.021370
RightHand 24.029418 -0.000000 -10.459083
RightHandThumb1 -24.326973 -0.000000 -32.862282
LeftShoulder -8.703595 51.205649 3.528875
LeftArm 126.857653 32.665469 37.629579
LeftForeArm 57.120172 -0.000000 130.885765
LeftHand -69.668403 0.000000 78.771709
LeftHandThumb1 -26.253704 0.000000 33.147579
Head 38.231551 27.463019 27.219905
1290
root 1.757844 37.128255 7.514064 2.166572 -4.074540 1.334442
RightUpLeg 8.412153 3.231770 -2.603539
RightLeg -6.181100 -0.000000 0.000000
RightFoot -10.897659 -10.630149 17.697043
RightToeBase 13.387857 -0.000000 -0.000000
LeftUpLeg 6.790936 7.620658 5.141325
LeftLeg -4.205684 -0.000000 0.000000
LeftFoot -5.193506 5.489303 -20.309205
LeftToeBase 7.458147 -0.000000 -0.000000
Spine -6.140171 -16.347847 -5.273644
RightShoulder -17.997778 16.446413 -42.045421
RightArm 144.688463 45.355265 95.205402
RightForeArm 45.965929 -0.000000 150.036964
RightHand 23.958139 -0.000000 -10.486574
RightHandThumb1 -24.326973 -0.000000 -32.862282
LeftShoulder -8.723783 51.260538 3.472214
LeftArm 126.778944 32.678973 37.573727
LeftForeArm 57.082440 -0.000000 130.952731
LeftHand -69.350338 -0.000000 78.119781
LeftHandThumb1 -26.253704 0.000000 33.147579
Head 37.917603 27.423647 26.838297
1291
root 1.763348 37.127637 7.515518 2.190316 -4.148281 1.335662
RightUpLeg 8.386818 3.177851 -2.627660
RightLeg -6.207943 -0.000000 0.000000
RightFoot -10.837771 -10.534214 17.671417
RightToeBase 13.568970 -0.000000 -0.000000
LeftUpLeg 6.769589 7.672035 5.121559
LeftLeg -4.181714 -0.000000 0.000000
LeftFoot -5.225527 5.526604 -20.272745
LeftToeBase 7.412672 -0.000000 -0.000000
Spine -6.107518 -16.171957 -5.190618
RightShoulder -18.073449 16.453884 -42.144075
RightArm 144.999751 45.220292 95.490956
RightForeArm 45.751524 -0.000000 150.081478
RightHand 23.863529 -0.000000 -10.713953
RightHandThumb1 -24.326973 -0.000000 -32.862282
LeftShoulder -8.720066 51.333834 3.368425
LeftArm 126.662952 32.689067 37.524915
LeftForeArm 57.116904 -0.000000 131.046381
LeftHand -69.049000 -0.000000 77.479933
LeftHandThumb1 -26.253704 0.000000 33.147579
Head 37.613863 27.377859 26.346672
1292
root 1.768047 37.126298 7.516739 2.227589 -4.211313 1.351666
RightUpLeg 8.344987 3.123120 -2.664952
RightLeg -6.225193 -0.000000 0.000000
RightFoot -10.799792 -10.444930 17.623228
RightToeBase 13.555886 -0.000000 -0.000000
LeftUpLeg 6.736885 7.700888 5.092558
LeftLeg -4.166630 -0.000000 0.000000
LeftFoot -5.253987 5.531890 -20.293293
LeftToeBase 7.400779 -0.000000 -0.000000
Spine -6.101214 -15.995120 -5.148254
RightShoulder -18.132288 16.434991 -42.218651
RightArm 145.264530 45.103955 95.740827
RightForeArm 45.309404 -0.000000 150.158313
RightHand 23.856670 -0.000000 -10.983210
RightHandThumb1 -24.326973 -0.000000 -32.862282
LeftShoulder -8.650162 51.399837 3.344673
LeftArm 126.624023 32.706670 37.505484
LeftForeArm 57.076227 -0.000000 131.092417
LeftHand -68.723921 -0.000000 76.806446
LeftHandThumb1 -26.253704 0.000000 33.147579
Head 37.290785 27.230697 25.780371
1293
root 1.772454 37.125137 7.518016 2.285242 -4.267042 1.362679
RightUpLeg 8.289496 3.086465 -2.693697
RightLeg -6.251507 -0.000000 0.000000
RightFoot -10.762081 -10.395741 17.559312
RightToeBase 13.534139 -0.000000 -0.000000
LeftUpLeg 6.687200 7.736034 5.064852
LeftLeg -4.160769 -0.000000 0.000000
LeftFoot -5.244094 5.535451 -20.329333
LeftToeBase 7.259555 -0.000000 -0.000000
Spine -6.137212 -15.834019 -5.084912
RightShoulder -18.150955 16.470686 -42.320113
RightArm 145.401547 45.016034 95.854628
RightForeArm 44.823667 0.000000 150.224041
RightHand 23.894751 -0.000000 -11.139568
RightHandThumb1 -24.326973 -0.000000 -32.862282
LeftShoulder -8.581986 51.479888 3.311700
LeftArm 126.573076 32.716189 37.494987
LeftForeArm 57.075242 -0.000000 131.144936
LeftHand -68.388668 -0.000000 76.112748
LeftHandThumb1 -26.253704 0.000000 33.147579
Head 36.971605 27.111799 25.234493
